<?xml version="1.0" encoding="UTF-8" standalone="no"?>
<!-- Created with Inkscape (http://www.inkscape.org/) -->

<svg
   xmlns:dc="http://purl.org/dc/elements/1.1/"
   xmlns:cc="http://creativecommons.org/ns#"
   xmlns:rdf="http://www.w3.org/1999/02/22-rdf-syntax-ns#"
   xmlns:svg="http://www.w3.org/2000/svg"
   xmlns="http://www.w3.org/2000/svg"
   xmlns:sodipodi="http://sodipodi.sourceforge.net/DTD/sodipodi-0.dtd"
   xmlns:inkscape="http://www.inkscape.org/namespaces/inkscape"
   width="233.02318mm"
   height="30.599134mm"
   viewBox="0 0 233.02318 30.599134"
   version="1.1"
   id="svg8"
   inkscape:version="0.92.0 r15299"
   sodipodi:docname="coralfig.svg">
  <defs
     id="defs2" />
  <sodipodi:namedview
     id="base"
     pagecolor="#ffffff"
     bordercolor="#666666"
     borderopacity="1.0"
     inkscape:pageopacity="0.0"
     inkscape:pageshadow="2"
     inkscape:zoom="0.7"
     inkscape:cx="338.6877"
     inkscape:cy="-18.784418"
     inkscape:document-units="mm"
     inkscape:current-layer="text4487"
     showgrid="false"
     fit-margin-top="0"
     fit-margin-left="0"
     fit-margin-right="0"
     fit-margin-bottom="0"
     inkscape:window-width="1366"
     inkscape:window-height="716"
     inkscape:window-x="-8"
     inkscape:window-y="-8"
     inkscape:window-maximized="1" />
  <metadata
     id="metadata5">
    <rdf:RDF>
      <cc:Work
         rdf:about="">
        <dc:format>image/svg+xml</dc:format>
        <dc:type
           rdf:resource="http://purl.org/dc/dcmitype/StillImage" />
        <dc:title></dc:title>
      </cc:Work>
    </rdf:RDF>
  </metadata>
  <g
     inkscape:label="Layer 1"
     inkscape:groupmode="layer"
     id="layer1"
     transform="translate(-54.591857,-46.205544)">
    <g
       id="g4536"
       transform="matrix(0.50128511,0,0,0.50128511,58.559882,32.019548)">
      <circle
         r="3.2072344"
         cy="62.60463"
         cx="118.13311"
         id="path4503"
         style="opacity:1;fill:#ff7f50;fill-opacity:1;fill-rule:nonzero;stroke:none;stroke-width:0.47058824;stroke-miterlimit:4;stroke-dasharray:none;stroke-dashoffset:0;stroke-opacity:1" />
      <circle
         style="opacity:1;fill:#ff7f50;fill-opacity:1;fill-rule:nonzero;stroke:none;stroke-width:0.47058824;stroke-miterlimit:4;stroke-dasharray:none;stroke-dashoffset:0;stroke-opacity:1"
         id="circle4505"
         cx="121.74125"
         cy="53.784737"
         r="3.2072344" />
      <circle
         r="3.2072344"
         cy="60.33284"
         cx="130.69478"
         id="circle4507"
         style="opacity:1;fill:#ff7f50;fill-opacity:1;fill-rule:nonzero;stroke:none;stroke-width:0.47058824;stroke-miterlimit:4;stroke-dasharray:none;stroke-dashoffset:0;stroke-opacity:1" />
      <circle
         style="opacity:1;fill:#ff7f50;fill-opacity:1;fill-rule:nonzero;stroke:none;stroke-width:0.47058824;stroke-miterlimit:4;stroke-dasharray:none;stroke-dashoffset:0;stroke-opacity:1"
         id="circle4509"
         cx="134.43655"
         cy="49.107521"
         r="3.2072344" />
      <circle
         r="3.2072344"
         cy="44.676949"
         cx="141.26929"
         id="circle4511"
         style="opacity:1;fill:#ff7f50;fill-opacity:1;fill-rule:nonzero;stroke:none;stroke-width:0.47058824;stroke-miterlimit:4;stroke-dasharray:none;stroke-dashoffset:0;stroke-opacity:1" />
      <circle
         style="opacity:1;fill:#ff7f50;fill-opacity:1;fill-rule:nonzero;stroke:none;stroke-width:0.47058824;stroke-miterlimit:4;stroke-dasharray:none;stroke-dashoffset:0;stroke-opacity:1"
         id="circle4513"
         cx="152.8015"
         cy="44.596363"
         r="3.2072344" />
      <circle
         r="3.2072344"
         cy="51.121536"
         cx="157.13153"
         id="circle4515"
         style="opacity:1;fill:#ff7f50;fill-opacity:1;fill-rule:nonzero;stroke:none;stroke-width:0.47058824;stroke-miterlimit:4;stroke-dasharray:none;stroke-dashoffset:0;stroke-opacity:1" />
      <circle
         style="opacity:1;fill:#ff7f50;fill-opacity:1;fill-rule:nonzero;stroke:none;stroke-width:0.47058824;stroke-miterlimit:4;stroke-dasharray:none;stroke-dashoffset:0;stroke-opacity:1"
         id="circle4517"
         cx="167.11221"
         cy="39.186123"
         r="3.2072344" />
      <circle
         r="3.2072344"
         cy="45.633015"
         cx="178.80328"
         id="circle4519"
         style="opacity:1;fill:#ff7f50;fill-opacity:1;fill-rule:nonzero;stroke:none;stroke-width:0.47058824;stroke-miterlimit:4;stroke-dasharray:none;stroke-dashoffset:0;stroke-opacity:1" />
      <circle
         style="opacity:1;fill:#ff7f50;fill-opacity:1;fill-rule:nonzero;stroke:none;stroke-width:0.47058824;stroke-miterlimit:4;stroke-dasharray:none;stroke-dashoffset:0;stroke-opacity:1"
         id="circle4521"
         cx="184.01505"
         cy="38.550373"
         r="3.2072344" />
      <circle
         style="opacity:1;fill:#ff7f50;fill-opacity:1;fill-rule:nonzero;stroke:none;stroke-width:0.47058824;stroke-miterlimit:4;stroke-dasharray:none;stroke-dashoffset:0;stroke-opacity:1"
         id="circle4523"
         cx="203.56073"
         cy="35.23867"
         r="3.2072344" />
    </g>
    <g
       aria-label="coral"
       style="font-style:normal;font-variant:normal;font-weight:normal;font-stretch:normal;font-size:20.90399361px;line-height:5.08318567px;font-family:'Fira Code';-inkscape-font-specification:'Fira Code';letter-spacing:0px;word-spacing:0px;fill:#000000;fill-opacity:1;stroke:none;stroke-width:0.52259982px;stroke-linecap:butt;stroke-linejoin:miter;stroke-opacity:1"
       id="text4487">
      <path
         d="m 60.008882,61.633746 q 1.442376,0 2.863847,-0.961584 l 0.83616,1.14972 q -0.689832,0.606216 -1.714128,0.961584 -1.024295,0.355368 -1.985879,0.355368 -2.445767,0 -3.825431,-1.525992 -1.358759,-1.546895 -1.358759,-4.159895 0,-1.651415 0.606215,-2.968367 0.62712,-1.316951 1.797744,-2.069495 1.170623,-0.752544 2.780231,-0.752544 2.132207,0 3.679103,1.296048 l -0.857064,1.149719 q -1.442375,-0.961583 -2.842943,-0.961583 -1.484184,0 -2.383055,1.107911 -0.877968,1.087008 -0.877968,3.198311 0,2.111304 0.877968,3.156503 0.898871,1.024296 2.403959,1.024296 z"
         style="font-style:normal;font-variant:normal;font-weight:normal;font-stretch:normal;font-family:'Fira Code';-inkscape-font-specification:'Fira Code';stroke-width:0.52259982px"
         id="path5080" />
      <path
         d="m 71.74876,51.662541 q 2.278536,0 3.490967,1.546896 1.233336,1.525991 1.233336,4.180798 0,2.592096 -1.25424,4.180799 -1.233335,1.5678 -3.490967,1.5678 -2.278535,0 -3.51187,-1.525992 -1.233336,-1.546895 -1.233336,-4.201703 0,-2.612999 1.233336,-4.180798 1.254239,-1.5678 3.532774,-1.5678 z m 0,1.442376 q -1.442375,0 -2.153111,1.066103 -0.710736,1.066104 -0.710736,3.240119 0,2.174016 0.689832,3.240119 0.710736,1.0452 2.153111,1.0452 1.442376,0 2.132208,-1.0452 0.710736,-1.066103 0.710736,-3.261023 0,-2.174015 -0.710736,-3.219215 -0.689832,-1.066103 -2.111304,-1.066103 z"
         style="font-style:normal;font-variant:normal;font-weight:normal;font-stretch:normal;font-family:'Fira Code';-inkscape-font-specification:'Fira Code';stroke-width:0.52259982px"
         id="path5082" />
      <path
         d="m 87.52311,51.662541 q 0.668927,0 1.546895,0.229944 L 88.819157,55.6343 h -1.421471 v -2.362151 h -0.10452 q -2.550287,0 -3.616391,3.637295 v 4.640686 h 2.236727 v 1.35876 h -5.727694 v -1.35876 h 1.735031 v -8.298885 h -1.735031 v -1.35876 h 3.051983 l 0.334464,2.612999 q 0.668928,-1.421471 1.588703,-2.132207 0.94068,-0.710736 2.362152,-0.710736 z"
         style="font-style:normal;font-variant:normal;font-weight:normal;font-stretch:normal;font-family:'Fira Code';-inkscape-font-specification:'Fira Code';stroke-width:0.52259982px"
         id="path5084" />
      <path
         d="m 100.51723,60.504931 q 0,0.648023 0.20904,0.961583 0.20904,0.292656 0.68983,0.438984 l -0.43898,1.25424 q -1.609611,-0.20904 -2.006787,-1.5678 -0.585312,0.752544 -1.484183,1.14972 -0.877968,0.397176 -1.964976,0.397176 -1.651415,0 -2.612999,-0.919776 -0.94068,-0.919776 -0.94068,-2.466671 0,-1.693224 1.316952,-2.612999 1.337856,-0.919776 3.825431,-0.919776 h 1.630511 V 55.32074 q 0,-1.170624 -0.668928,-1.672319 -0.668927,-0.5226 -1.944071,-0.5226 -1.25424,0 -2.863847,0.564408 l -0.480792,-1.337856 q 1.944071,-0.689832 3.616391,-0.689832 2.006783,0 3.051983,0.94068 1.066105,0.94068 1.066105,2.612999 z m -4.557072,1.316951 q 0.815256,0 1.546896,-0.41808 0.752543,-0.41808 1.233335,-1.149719 v -2.82204 h -1.588703 q -1.755936,0 -2.529383,0.585312 -0.773448,0.585312 -0.773448,1.714128 0,2.090399 2.111303,2.090399 z"
         style="font-style:normal;font-variant:normal;font-weight:normal;font-stretch:normal;font-family:'Fira Code';-inkscape-font-specification:'Fira Code';stroke-width:0.52259982px"
         id="path5086" />
      <path
         d="m 109.45597,60.191371 q 0,1.484183 1.81865,1.484183 0.85706,0 1.83955,-0.376272 l 0.45989,1.275144 q -1.0452,0.564408 -2.613,0.564408 -1.48418,0 -2.38306,-0.815256 -0.87796,-0.815256 -0.87796,-2.215823 V 48.861406 h -3.38645 v -1.400568 h 5.14238 z"
         style="font-style:normal;font-variant:normal;font-weight:normal;font-stretch:normal;font-family:'Fira Code';-inkscape-font-specification:'Fira Code';stroke-width:0.52259982px"
         id="path5088" />
    </g>
    <g
       aria-label="correlated output regression analysis"
       style="font-style:normal;font-variant:normal;font-weight:normal;font-stretch:normal;font-size:10.58333302px;line-height:2.57352948px;font-family:'Fira Code';-inkscape-font-specification:'Fira Code';letter-spacing:0px;word-spacing:0px;fill:#000000;fill-opacity:1;stroke:none;stroke-width:0.26458332px;stroke-linecap:butt;stroke-linejoin:miter;stroke-opacity:1"
       id="text4491">
      <path
         d="m 57.58694,73.418012 q 0.3175,0 0.613833,-0.116416 0.296333,-0.127 0.635,-0.359834 l 0.740833,1.058334 q -0.402166,0.338666 -0.931333,0.53975 -0.529167,0.201083 -1.153583,0.201083 -0.899583,0 -1.55575,-0.370417 -0.645583,-0.370416 -0.994833,-1.037166 -0.34925,-0.66675 -0.34925,-1.545167 0,-0.878417 0.359833,-1.566333 0.359833,-0.687917 1.016,-1.0795 0.66675,-0.391584 1.55575,-0.391584 0.624416,0 1.121833,0.179917 0.497417,0.169333 0.931333,0.529167 l -0.719666,1.005416 q -0.613834,-0.423333 -1.259417,-0.423333 -1.259416,0 -1.259416,1.74625 0,0.878417 0.328083,1.259417 0.328083,0.370416 0.92075,0.370416 z"
         style="font-weight:bold"
         id="path5091" />
      <path
         d="m 63.393056,68.867179 q 1.153583,0 1.767416,0.783167 0.624417,0.772583 0.624417,2.116666 0,1.312334 -0.635,2.116667 -0.624417,0.79375 -1.767417,0.79375 -1.153583,0 -1.778,-0.772583 -0.624416,-0.783167 -0.624416,-2.12725 0,-1.322917 0.624416,-2.116667 0.635,-0.79375 1.788584,-0.79375 z m 0,0.73025 q -0.73025,0 -1.090084,0.53975 -0.359833,0.53975 -0.359833,1.640417 0,1.100666 0.34925,1.640416 0.359833,0.529167 1.090083,0.529167 0.73025,0 1.0795,-0.529167 0.359834,-0.53975 0.359834,-1.651 0,-1.100666 -0.359834,-1.629833 -0.34925,-0.53975 -1.068916,-0.53975 z"
         style="font-style:normal;font-variant:normal;font-weight:normal;font-stretch:normal;font-family:'Fira Code';-inkscape-font-specification:'Fira Code';stroke-width:0.26458332px"
         id="path5093" />
      <path
         d="m 71.379338,68.867179 q 0.338667,0 0.783167,0.116417 l -0.127,1.894416 h -0.719667 v -1.195916 h -0.05292 q -1.291166,0 -1.830916,1.8415 v 2.3495 h 1.132416 v 0.687916 h -2.899833 v -0.687916 h 0.878417 v -4.201584 h -0.878417 v -0.687916 h 1.545167 l 0.169333,1.322916 q 0.338667,-0.719666 0.804333,-1.0795 0.47625,-0.359833 1.195917,-0.359833 z"
         style="font-style:normal;font-variant:normal;font-weight:normal;font-stretch:normal;font-family:'Fira Code';-inkscape-font-specification:'Fira Code';stroke-width:0.26458332px"
         id="path5095" />
      <path
         d="m 77.725204,68.867179 q 0.338667,0 0.783167,0.116417 l -0.127,1.894416 h -0.719667 v -1.195916 h -0.05292 q -1.291166,0 -1.830916,1.8415 v 2.3495 h 1.132416 v 0.687916 h -2.899833 v -0.687916 h 0.878417 v -4.201584 h -0.878417 v -0.687916 h 1.545167 l 0.169333,1.322916 q 0.338667,-0.719666 0.804333,-1.0795 0.47625,-0.359833 1.195917,-0.359833 z"
         style="font-style:normal;font-variant:normal;font-weight:normal;font-stretch:normal;font-family:'Fira Code';-inkscape-font-specification:'Fira Code';stroke-width:0.26458332px"
         id="path5097" />
      <path
         d="m 81.012486,72.084512 q 0.03175,0.92075 0.47625,1.386417 0.455083,0.465667 1.143,0.465667 0.41275,0 0.751417,-0.116417 0.34925,-0.127 0.740833,-0.381 l 0.41275,0.592667 q -0.391583,0.306916 -0.899583,0.47625 -0.497417,0.169333 -1.005417,0.169333 -1.2065,0 -1.883833,-0.783167 -0.66675,-0.79375 -0.66675,-2.116666 0,-0.836084 0.296333,-1.49225 0.296333,-0.66675 0.846667,-1.037167 0.550333,-0.381 1.280583,-0.381 1.058333,0 1.661583,0.740833 0.613834,0.73025 0.613834,2.00025 0,0.243417 -0.02117,0.47625 z m 1.502833,-2.487083 q -0.645583,0 -1.04775,0.465667 -0.402166,0.455083 -0.455083,1.344083 h 2.899833 q -0.01058,-0.878417 -0.381,-1.344083 -0.370416,-0.465667 -1.016,-0.465667 z"
         style="font-style:normal;font-variant:normal;font-weight:normal;font-stretch:normal;font-family:'Fira Code';-inkscape-font-specification:'Fira Code';stroke-width:0.26458332px"
         id="path5099" />
      <path
         d="m 88.829435,73.185179 q 0,0.751417 0.92075,0.751417 0.433916,0 0.931333,-0.1905 l 0.232833,0.645583 q -0.529166,0.28575 -1.322916,0.28575 -0.751417,0 -1.2065,-0.41275 -0.4445,-0.41275 -0.4445,-1.121833 v -5.693834 h -1.7145 v -0.709083 h 2.6035 z"
         style="font-style:normal;font-variant:normal;font-weight:normal;font-stretch:normal;font-family:'Fira Code';-inkscape-font-specification:'Fira Code';stroke-width:0.26458332px"
         id="path5101" />
      <path
         d="m 96.995635,73.343929 q 0,0.328083 0.105833,0.486833 0.105834,0.148167 0.34925,0.22225 l -0.22225,0.635 q -0.814916,-0.105833 -1.016,-0.79375 -0.296333,0.381 -0.751416,0.582084 -0.4445,0.201083 -0.994833,0.201083 -0.836084,0 -1.322917,-0.465667 -0.47625,-0.465666 -0.47625,-1.248833 0,-0.85725 0.66675,-1.322917 0.677333,-0.465666 1.93675,-0.465666 h 0.8255 v -0.455084 q 0,-0.592666 -0.338667,-0.846666 -0.338667,-0.264584 -0.98425,-0.264584 -0.635,0 -1.449916,0.28575 l -0.243417,-0.677333 q 0.98425,-0.34925 1.830916,-0.34925 1.016,0 1.545167,0.47625 0.53975,0.47625 0.53975,1.322917 z m -2.307167,0.66675 q 0.41275,0 0.783167,-0.211667 0.381,-0.211666 0.624417,-0.582083 v -1.42875 h -0.804334 q -0.888999,0 -1.280583,0.296333 -0.391583,0.296334 -0.391583,0.867834 0,1.058333 1.068916,1.058333 z"
         style="font-style:normal;font-variant:normal;font-weight:normal;font-stretch:normal;font-family:'Fira Code';-inkscape-font-specification:'Fira Code';stroke-width:0.26458332px"
         id="path5103" />
      <path
         d="m 103.77542,74.275262 q -0.28575,0.1905 -0.6985,0.296334 -0.40217,0.105833 -0.80434,0.105833 -0.87841,0 -1.37583,-0.455083 -0.49742,-0.465667 -0.49742,-1.217084 v -3.323166 h -1.280581 v -0.6985 h 1.280581 v -1.259417 l 0.889,-0.105833 v 1.36525 h 1.93675 l -0.11641,0.6985 h -1.82034 v 3.312583 q 0,0.47625 0.254,0.709083 0.254,0.232834 0.81492,0.232834 0.5715,0 1.06892,-0.264584 z"
         style="font-style:normal;font-variant:normal;font-weight:normal;font-stretch:normal;font-family:'Fira Code';-inkscape-font-specification:'Fira Code';stroke-width:0.26458332px"
         id="path5105" />
      <path
         d="m 106.39595,72.084512 q 0.0318,0.92075 0.47625,1.386417 0.45508,0.465667 1.143,0.465667 0.41275,0 0.75142,-0.116417 0.34925,-0.127 0.74083,-0.381 l 0.41275,0.592667 q -0.39158,0.306916 -0.89958,0.47625 -0.49742,0.169333 -1.00542,0.169333 -1.2065,0 -1.88383,-0.783167 -0.66675,-0.79375 -0.66675,-2.116666 0,-0.836084 0.29633,-1.49225 0.29633,-0.66675 0.84667,-1.037167 0.55033,-0.381 1.28058,-0.381 1.05833,0 1.66158,0.740833 0.61384,0.73025 0.61384,2.00025 0,0.243417 -0.0212,0.47625 z m 1.50283,-2.487083 q -0.64558,0 -1.04775,0.465667 -0.40216,0.455083 -0.45508,1.344083 h 2.89983 q -0.0106,-0.878417 -0.381,-1.344083 -0.37041,-0.465667 -1.016,-0.465667 z"
         style="font-style:normal;font-variant:normal;font-weight:normal;font-stretch:normal;font-family:'Fira Code';-inkscape-font-specification:'Fira Code';stroke-width:0.26458332px"
         id="path5107" />
      <path
         d="m 116.26607,66.739929 v 7.821083 h -0.78317 l -0.0847,-0.73025 q -0.30691,0.423334 -0.70908,0.635 -0.40217,0.211667 -0.86783,0.211667 -1.05834,0 -1.59809,-0.772583 -0.52916,-0.772584 -0.52916,-2.12725 0,-0.836084 0.26458,-1.49225 0.26458,-0.66675 0.75142,-1.037167 0.49741,-0.381 1.16416,-0.381 0.92075,0 1.50284,0.66675 v -2.899833 z m -2.159,2.846917 q -0.6985,0 -1.0795,0.550333 -0.37042,0.550333 -0.37042,1.640417 0,1.0795 0.33867,1.640416 0.34925,0.550334 1.00541,0.550334 0.79375,0 1.37584,-0.889 v -2.772834 q -0.23284,-0.34925 -0.56092,-0.529166 -0.32808,-0.1905 -0.70908,-0.1905 z"
         style="font-style:normal;font-variant:normal;font-weight:normal;font-stretch:normal;font-family:'Fira Code';-inkscape-font-specification:'Fira Code';stroke-width:0.26458332px"
         id="path5109" />
      <path
         d="m 126.84113,68.750762 q 1.28058,0 2.00025,0.814917 0.73025,0.804333 0.73025,2.169583 0,1.418167 -0.71967,2.211917 -0.71967,0.79375 -2.01083,0.79375 -1.29117,0 -2.01084,-0.783167 -0.71966,-0.79375 -0.71966,-2.211916 0,-0.899584 0.3175,-1.566334 0.32808,-0.677333 0.94191,-1.04775 0.62442,-0.381 1.47109,-0.381 z m 0,1.23825 q -0.51859,0 -0.762,0.423334 -0.24342,0.41275 -0.24342,1.3335 0,0.931333 0.24342,1.354666 0.24341,0.41275 0.762,0.41275 0.51858,0 0.762,-0.423333 0.24341,-0.423333 0.24341,-1.354667 0,-0.910166 -0.24341,-1.322916 -0.24342,-0.423334 -0.762,-0.423334 z"
         style="font-weight:bold"
         id="path5111" />
      <path
         d="m 131.95933,72.941762 q 0,0.53975 0.22225,0.79375 0.23283,0.243417 0.71967,0.243417 0.4445,0 0.85725,-0.254 0.41275,-0.254 0.65616,-0.635 v -4.106333 h 0.889 v 5.577416 h -0.762 l -0.0741,-0.751416 q -0.32808,0.41275 -0.81492,0.645583 -0.47625,0.22225 -0.97366,0.22225 -0.79375,0 -1.2065,-0.423333 -0.40217,-0.423334 -0.40217,-1.217084 v -4.053416 h 0.889 z"
         style="font-style:normal;font-variant:normal;font-weight:normal;font-stretch:normal;font-family:'Fira Code';-inkscape-font-specification:'Fira Code';stroke-width:0.26458332px"
         id="path5113" />
      <path
         d="m 141.85061,74.275262 q -0.28575,0.1905 -0.6985,0.296334 -0.40217,0.105833 -0.80433,0.105833 -0.87842,0 -1.37584,-0.455083 -0.49741,-0.465667 -0.49741,-1.217084 v -3.323166 h -1.28059 v -0.6985 h 1.28059 v -1.259417 l 0.889,-0.105833 v 1.36525 h 1.93675 l -0.11642,0.6985 h -1.82033 v 3.312583 q 0,0.47625 0.254,0.709083 0.254,0.232834 0.81491,0.232834 0.5715,0 1.06892,-0.264584 z"
         style="font-style:normal;font-variant:normal;font-weight:normal;font-stretch:normal;font-family:'Fira Code';-inkscape-font-specification:'Fira Code';stroke-width:0.26458332px"
         id="path5115" />
      <path
         d="m 146.25972,68.867179 q 2.02142,0 2.02142,2.899833 0,1.322917 -0.55033,2.116667 -0.55034,0.79375 -1.59809,0.79375 -0.91016,0 -1.48166,-0.635 v 2.656417 l -0.889,0.105833 v -7.821083 h 0.762 l 0.0741,0.783166 q 0.30692,-0.433916 0.73025,-0.66675 0.43392,-0.232833 0.93133,-0.232833 z m -0.21166,0.719667 q -0.42334,0 -0.78317,0.254 -0.34925,0.254 -0.61383,0.635 v 2.76225 q 0.22225,0.328083 0.55033,0.518583 0.33867,0.179917 0.73025,0.179917 0.6985,0 1.03717,-0.529167 0.34925,-0.53975 0.34925,-1.640417 0,-1.100666 -0.30692,-1.640416 -0.30692,-0.53975 -0.96308,-0.53975 z"
         style="font-style:normal;font-variant:normal;font-weight:normal;font-stretch:normal;font-family:'Fira Code';-inkscape-font-specification:'Fira Code';stroke-width:0.26458332px"
         id="path5117" />
      <path
         d="m 150.99693,72.941762 q 0,0.53975 0.22225,0.79375 0.23283,0.243417 0.71966,0.243417 0.4445,0 0.85725,-0.254 0.41275,-0.254 0.65617,-0.635 v -4.106333 h 0.889 v 5.577416 h -0.762 l -0.0741,-0.751416 q -0.32809,0.41275 -0.81492,0.645583 -0.47625,0.22225 -0.97367,0.22225 -0.79375,0 -1.2065,-0.423333 -0.40216,-0.423334 -0.40216,-1.217084 v -4.053416 h 0.889 z"
         style="font-style:normal;font-variant:normal;font-weight:normal;font-stretch:normal;font-family:'Fira Code';-inkscape-font-specification:'Fira Code';stroke-width:0.26458332px"
         id="path5119" />
      <path
         d="m 160.88821,74.275262 q -0.28575,0.1905 -0.6985,0.296334 -0.40217,0.105833 -0.80434,0.105833 -0.87841,0 -1.37583,-0.455083 -0.49742,-0.465667 -0.49742,-1.217084 v -3.323166 h -1.28058 v -0.6985 h 1.28058 v -1.259417 l 0.889,-0.105833 v 1.36525 h 1.93675 l -0.11641,0.6985 h -1.82034 v 3.312583 q 0,0.47625 0.254,0.709083 0.254,0.232834 0.81492,0.232834 0.5715,0 1.06892,-0.264584 z"
         style="font-style:normal;font-variant:normal;font-weight:normal;font-stretch:normal;font-family:'Fira Code';-inkscape-font-specification:'Fira Code';stroke-width:0.26458332px"
         id="path5121" />
      <path
         d="m 173.11428,68.771929 q 0.508,0 0.93133,0.169333 l -0.30692,2.3495 h -1.05833 v -1.026583 q -0.46567,0.07408 -0.8255,0.497417 -0.35983,0.423333 -0.56092,1.068916 v 1.608667 h 1.11125 v 1.121833 h -3.52425 v -1.121833 h 0.74084 v -3.386667 h -0.74084 v -1.11125 h 2.02142 l 0.29633,1.259417 q 0.30692,-0.719667 0.77259,-1.068917 0.46566,-0.359833 1.143,-0.359833 z"
         style="font-weight:bold"
         id="path5123" />
      <path
         d="m 176.20047,72.084512 q 0.0318,0.92075 0.47625,1.386417 0.45509,0.465667 1.143,0.465667 0.41275,0 0.75142,-0.116417 0.34925,-0.127 0.74083,-0.381 l 0.41275,0.592667 q -0.39158,0.306916 -0.89958,0.47625 -0.49742,0.169333 -1.00542,0.169333 -1.2065,0 -1.88383,-0.783167 -0.66675,-0.79375 -0.66675,-2.116666 0,-0.836084 0.29633,-1.49225 0.29634,-0.66675 0.84667,-1.037167 0.55033,-0.381 1.28058,-0.381 1.05834,0 1.66159,0.740833 0.61383,0.73025 0.61383,2.00025 0,0.243417 -0.0212,0.47625 z m 1.50284,-2.487083 q -0.64559,0 -1.04775,0.465667 -0.40217,0.455083 -0.45509,1.344083 h 2.89984 q -0.0106,-0.878417 -0.381,-1.344083 -0.37042,-0.465667 -1.016,-0.465667 z"
         style="font-style:normal;font-variant:normal;font-weight:normal;font-stretch:normal;font-family:'Fira Code';-inkscape-font-specification:'Fira Code';stroke-width:0.26458332px"
         id="path5125" />
      <path
         d="m 186.64209,69.237596 q -0.3175,0.105833 -0.68792,0.137583 -0.37042,0.02117 -0.94192,0.02117 0.97367,0.4445 0.97367,1.407583 0,0.846667 -0.56092,1.375833 -0.56091,0.518584 -1.53458,0.518584 -0.49742,0 -0.83608,-0.116417 -0.127,0.09525 -0.21167,0.243417 -0.0741,0.148166 -0.0741,0.296333 0,0.47625 0.74083,0.47625 h 1.00542 q 0.55033,0 0.99483,0.201083 0.45508,0.1905 0.70908,0.53975 0.26459,0.34925 0.26459,0.772584 0,0.814916 -0.6985,1.248833 -0.68792,0.4445 -1.95792,0.4445 -1.29117,0 -1.82033,-0.402167 -0.52917,-0.402166 -0.52917,-1.280583 h 0.80433 q 0,0.34925 0.127,0.550333 0.13759,0.211667 0.46567,0.306917 0.33867,0.105833 0.9525,0.105833 0.89958,0 1.32292,-0.232833 0.43391,-0.232833 0.43391,-0.687917 0,-0.381 -0.34925,-0.592666 -0.34925,-0.201084 -0.89958,-0.201084 h -0.99483 q -0.68792,0 -1.04775,-0.296333 -0.35984,-0.306917 -0.35984,-0.762 0,-0.264583 0.15875,-0.518583 0.15875,-0.264584 0.45509,-0.455084 -0.47625,-0.243416 -0.70909,-0.613833 -0.22225,-0.381 -0.22225,-0.92075 0,-0.560917 0.27517,-0.994833 0.28575,-0.4445 0.78317,-0.687917 0.508,-0.254 1.16416,-0.254 0.9525,0 1.44992,-0.105833 0.49742,-0.105834 1.09008,-0.359834 z m -2.81517,0.28575 q -0.64558,0 -0.97367,0.34925 -0.32808,0.338666 -0.32808,0.931333 0,0.592667 0.32808,0.9525 0.33867,0.34925 0.99484,0.34925 0.59266,0 0.89958,-0.338667 0.3175,-0.34925 0.3175,-0.973666 0,-1.27 -1.23825,-1.27 z"
         style="font-style:normal;font-variant:normal;font-weight:normal;font-stretch:normal;font-family:'Fira Code';-inkscape-font-specification:'Fira Code';stroke-width:0.26458332px"
         id="path5127" />
      <path
         d="m 191.95079,68.867179 q 0.33867,0 0.78317,0.116417 l -0.127,1.894416 h -0.71967 v -1.195916 h -0.0529 q -1.29116,0 -1.83091,1.8415 v 2.3495 h 1.13241 v 0.687916 h -2.89983 v -0.687916 h 0.87842 v -4.201584 h -0.87842 v -0.687916 h 1.54517 l 0.16933,1.322916 q 0.33867,-0.719666 0.80433,-1.0795 0.47625,-0.359833 1.19592,-0.359833 z"
         style="font-style:normal;font-variant:normal;font-weight:normal;font-stretch:normal;font-family:'Fira Code';-inkscape-font-specification:'Fira Code';stroke-width:0.26458332px"
         id="path5129" />
      <path
         d="m 195.23806,72.084512 q 0.0318,0.92075 0.47625,1.386417 0.45509,0.465667 1.143,0.465667 0.41275,0 0.75142,-0.116417 0.34925,-0.127 0.74083,-0.381 l 0.41275,0.592667 q -0.39158,0.306916 -0.89958,0.47625 -0.49742,0.169333 -1.00542,0.169333 -1.2065,0 -1.88383,-0.783167 -0.66675,-0.79375 -0.66675,-2.116666 0,-0.836084 0.29633,-1.49225 0.29634,-0.66675 0.84667,-1.037167 0.55033,-0.381 1.28058,-0.381 1.05834,0 1.66159,0.740833 0.61383,0.73025 0.61383,2.00025 0,0.243417 -0.0212,0.47625 z m 1.50284,-2.487083 q -0.64559,0 -1.04775,0.465667 -0.40217,0.455083 -0.45509,1.344083 h 2.89984 q -0.0106,-0.878417 -0.381,-1.344083 -0.37042,-0.465667 -1.016,-0.465667 z"
         style="font-style:normal;font-variant:normal;font-weight:normal;font-stretch:normal;font-family:'Fira Code';-inkscape-font-specification:'Fira Code';stroke-width:0.26458332px"
         id="path5131" />
      <path
         d="m 202.77985,73.947179 q 0.635,0 1.00542,-0.243417 0.37041,-0.243416 0.37041,-0.645583 0,-0.275167 -0.0952,-0.4445 -0.0952,-0.179917 -0.381,-0.3175 -0.28575,-0.148167 -0.86783,-0.296333 -0.97367,-0.243417 -1.43933,-0.582084 -0.46567,-0.34925 -0.46567,-1.026583 0,-0.6985 0.58208,-1.11125 0.58209,-0.41275 1.53459,-0.41275 1.16416,0 2.032,0.613833 l -0.40217,0.613834 q -0.34925,-0.243417 -0.73025,-0.370417 -0.381,-0.137583 -0.87842,-0.137583 -1.2065,0 -1.2065,0.73025 0,0.254 0.127,0.41275 0.13759,0.15875 0.43392,0.28575 0.30692,0.116416 0.91017,0.28575 0.91016,0.243416 1.35466,0.624416 0.45509,0.370417 0.45509,1.090084 0,0.836083 -0.67734,1.248833 -0.67733,0.41275 -1.66158,0.41275 -1.31233,0 -2.18017,-0.751417 l 0.49742,-0.582083 q 0.33867,0.275167 0.77258,0.4445 0.43392,0.15875 0.91017,0.15875 z"
         style="font-style:normal;font-variant:normal;font-weight:normal;font-stretch:normal;font-family:'Fira Code';-inkscape-font-specification:'Fira Code';stroke-width:0.26458332px"
         id="path5133" />
      <path
         d="m 209.12572,73.947179 q 0.635,0 1.00542,-0.243417 0.37041,-0.243416 0.37041,-0.645583 0,-0.275167 -0.0953,-0.4445 -0.0952,-0.179917 -0.381,-0.3175 -0.28575,-0.148167 -0.86783,-0.296333 -0.97367,-0.243417 -1.43933,-0.582084 -0.46567,-0.34925 -0.46567,-1.026583 0,-0.6985 0.58208,-1.11125 0.58209,-0.41275 1.53459,-0.41275 1.16416,0 2.032,0.613833 l -0.40217,0.613834 q -0.34925,-0.243417 -0.73025,-0.370417 -0.381,-0.137583 -0.87842,-0.137583 -1.2065,0 -1.2065,0.73025 0,0.254 0.127,0.41275 0.13759,0.15875 0.43392,0.28575 0.30692,0.116416 0.91017,0.28575 0.91016,0.243416 1.35466,0.624416 0.45509,0.370417 0.45509,1.090084 0,0.836083 -0.67734,1.248833 -0.67733,0.41275 -1.66158,0.41275 -1.31233,0 -2.18017,-0.751417 l 0.49742,-0.582083 q 0.33867,0.275167 0.77258,0.4445 0.43392,0.15875 0.91017,0.15875 z"
         style="font-style:normal;font-variant:normal;font-weight:normal;font-stretch:normal;font-family:'Fira Code';-inkscape-font-specification:'Fira Code';stroke-width:0.26458332px"
         id="path5135" />
      <path
         d="m 215.68324,66.380096 q 0.29634,0 0.47625,0.179917 0.17992,0.169333 0.17992,0.444499 0,0.275167 -0.17992,0.455084 -0.17991,0.169333 -0.47625,0.169333 -0.28575,0 -0.46566,-0.169333 -0.16934,-0.179917 -0.16934,-0.455084 0,-0.275166 0.16934,-0.444499 0.17991,-0.179917 0.46566,-0.179917 z m 0.70909,2.6035 v 4.868333 h 1.56633 v 0.709083 h -4.16983 v -0.709083 h 1.7145 v -4.15925 h -1.66159 v -0.709083 z"
         style="font-style:normal;font-variant:normal;font-weight:normal;font-stretch:normal;font-family:'Fira Code';-inkscape-font-specification:'Fira Code';stroke-width:0.26458332px"
         id="path5137" />
      <path
         d="m 222.0397,68.867179 q 1.15358,0 1.76741,0.783167 0.62442,0.772583 0.62442,2.116666 0,1.312334 -0.635,2.116667 -0.62442,0.79375 -1.76742,0.79375 -1.15358,0 -1.778,-0.772583 -0.62441,-0.783167 -0.62441,-2.12725 0,-1.322917 0.62441,-2.116667 0.635,-0.79375 1.78859,-0.79375 z m 0,0.73025 q -0.73025,0 -1.09009,0.53975 -0.35983,0.53975 -0.35983,1.640417 0,1.100666 0.34925,1.640416 0.35983,0.529167 1.09008,0.529167 0.73025,0 1.0795,-0.529167 0.35984,-0.53975 0.35984,-1.651 0,-1.100666 -0.35984,-1.629833 -0.34925,-0.53975 -1.06891,-0.53975 z"
         style="font-style:normal;font-variant:normal;font-weight:normal;font-stretch:normal;font-family:'Fira Code';-inkscape-font-specification:'Fira Code';stroke-width:0.26458332px"
         id="path5139" />
      <path
         d="m 226.25832,68.983596 h 0.762 l 0.0741,0.783166 q 0.32809,-0.423333 0.8255,-0.656166 0.508,-0.243417 1.016,-0.243417 1.56634,0 1.56634,1.651 v 4.042833 h -0.889 v -3.386666 q 0,-0.624417 -0.0741,-0.9525 -0.0635,-0.328084 -0.26458,-0.486834 -0.20108,-0.15875 -0.61383,-0.15875 -0.45509,0 -0.85725,0.275167 -0.40217,0.275167 -0.65617,0.656167 v 4.053416 h -0.889 z"
         style="font-style:normal;font-variant:normal;font-weight:normal;font-stretch:normal;font-family:'Fira Code';-inkscape-font-specification:'Fira Code';stroke-width:0.26458332px"
         id="path5141" />
      <path
         d="m 243.3633,72.941762 q 0,0.306917 0.0847,0.455084 0.0847,0.148166 0.28575,0.22225 l -0.34925,1.100666 q -0.508,-0.05292 -0.84666,-0.22225 -0.33867,-0.179916 -0.52917,-0.518583 -0.3175,0.370417 -0.80433,0.5715 -0.48684,0.1905 -1.03717,0.1905 -0.86783,0 -1.38642,-0.486833 -0.51858,-0.497417 -0.51858,-1.280584 0,-0.910166 0.71967,-1.407583 0.71966,-0.508 2.02141,-0.508 h 0.75142 v -0.201083 q 0,-0.867834 -1.11125,-0.867834 -0.28575,0 -0.71967,0.08467 -0.42333,0.07408 -0.8255,0.211667 l -0.381,-1.11125 q 0.53975,-0.201084 1.12184,-0.306917 0.59266,-0.116417 1.06891,-0.116417 2.45534,0 2.45534,1.989667 z m -2.62467,0.60325 q 0.28575,0 0.5715,-0.15875 0.29633,-0.169333 0.4445,-0.455083 v -0.92075 h -0.41275 q -1.35467,0 -1.35467,0.846667 0,0.328083 0.1905,0.508 0.20109,0.179916 0.56092,0.179916 z"
         style="font-weight:bold"
         id="path5143" />
      <path
         d="m 245.29592,68.983596 h 0.762 l 0.0741,0.783166 q 0.32808,-0.423333 0.8255,-0.656166 0.508,-0.243417 1.016,-0.243417 1.56633,0 1.56633,1.651 v 4.042833 h -0.889 v -3.386666 q 0,-0.624417 -0.0741,-0.9525 -0.0635,-0.328084 -0.26458,-0.486834 -0.20109,-0.15875 -0.61384,-0.15875 -0.45508,0 -0.85725,0.275167 -0.40216,0.275167 -0.65616,0.656167 v 4.053416 h -0.889 z"
         style="font-style:normal;font-variant:normal;font-weight:normal;font-stretch:normal;font-family:'Fira Code';-inkscape-font-specification:'Fira Code';stroke-width:0.26458332px"
         id="path5145" />
      <path
         d="m 255.64227,73.343929 q 0,0.328083 0.10584,0.486833 0.10583,0.148167 0.34925,0.22225 l -0.22225,0.635 q -0.81492,-0.105833 -1.016,-0.79375 -0.29634,0.381 -0.75142,0.582084 -0.4445,0.201083 -0.99483,0.201083 -0.83609,0 -1.32292,-0.465667 -0.47625,-0.465666 -0.47625,-1.248833 0,-0.85725 0.66675,-1.322917 0.67733,-0.465666 1.93675,-0.465666 h 0.8255 v -0.455084 q 0,-0.592666 -0.33867,-0.846666 -0.33866,-0.264584 -0.98425,-0.264584 -0.635,0 -1.44991,0.28575 l -0.24342,-0.677333 q 0.98425,-0.34925 1.83092,-0.34925 1.016,0 1.54516,0.47625 0.53975,0.47625 0.53975,1.322917 z m -2.30716,0.66675 q 0.41275,0 0.78316,-0.211667 0.381,-0.211666 0.62442,-0.582083 v -1.42875 h -0.80433 q -0.889,0 -1.28059,0.296333 -0.39158,0.296334 -0.39158,0.867834 0,1.058333 1.06892,1.058333 z"
         style="font-style:normal;font-variant:normal;font-weight:normal;font-stretch:normal;font-family:'Fira Code';-inkscape-font-specification:'Fira Code';stroke-width:0.26458332px"
         id="path5147" />
      <path
         d="m 260.60173,72.793596 q 0,0.624416 0.71966,0.624416 0.39159,0 0.80434,-0.169333 l 0.39158,1.121833 q -0.67733,0.370417 -1.61925,0.370417 -0.98425,0 -1.48167,-0.560917 -0.48683,-0.5715 -0.48683,-1.598083 v -4.73075 h -1.651 v -1.143 h 3.32317 z"
         style="font-weight:bold"
         id="path5149" />
      <path
         d="m 267.02168,74.592762 q -0.32808,0.963084 -0.89958,1.534584 -0.5715,0.5715 -1.59809,0.677333 l -0.127,-0.709083 q 0.56092,-0.09525 0.889,-0.296334 0.33867,-0.1905 0.52917,-0.486833 0.1905,-0.28575 0.34925,-0.751417 h -0.29633 l -1.93675,-5.577416 h 0.94191 l 1.59809,4.900083 1.57691,-4.900083 h 0.92075 z"
         style="font-style:normal;font-variant:normal;font-weight:normal;font-stretch:normal;font-family:'Fira Code';-inkscape-font-specification:'Fira Code';stroke-width:0.26458332px"
         id="path5151" />
      <path
         d="m 272.58437,73.947179 q 0.635,0 1.00542,-0.243417 0.37041,-0.243416 0.37041,-0.645583 0,-0.275167 -0.0952,-0.4445 -0.0953,-0.179917 -0.381,-0.3175 -0.28575,-0.148167 -0.86783,-0.296333 -0.97367,-0.243417 -1.43933,-0.582084 -0.46567,-0.34925 -0.46567,-1.026583 0,-0.6985 0.58208,-1.11125 0.58209,-0.41275 1.53459,-0.41275 1.16416,0 2.032,0.613833 l -0.40217,0.613834 q -0.34925,-0.243417 -0.73025,-0.370417 -0.381,-0.137583 -0.87842,-0.137583 -1.2065,0 -1.2065,0.73025 0,0.254 0.127,0.41275 0.13759,0.15875 0.43392,0.28575 0.30692,0.116416 0.91017,0.28575 0.91016,0.243416 1.35466,0.624416 0.45509,0.370417 0.45509,1.090084 0,0.836083 -0.67734,1.248833 -0.67733,0.41275 -1.66158,0.41275 -1.31233,0 -2.18017,-0.751417 l 0.49742,-0.582083 q 0.33867,0.275167 0.77258,0.4445 0.43392,0.15875 0.91017,0.15875 z"
         style="font-style:normal;font-variant:normal;font-weight:normal;font-stretch:normal;font-family:'Fira Code';-inkscape-font-specification:'Fira Code';stroke-width:0.26458332px"
         id="path5153" />
      <path
         d="m 279.14191,66.380096 q 0.29633,0 0.47625,0.179917 0.17991,0.169333 0.17991,0.444499 0,0.275167 -0.17991,0.455084 -0.17992,0.169333 -0.47625,0.169333 -0.28575,0 -0.46567,-0.169333 -0.16933,-0.179917 -0.16933,-0.455084 0,-0.275166 0.16933,-0.444499 0.17992,-0.179917 0.46567,-0.179917 z m 0.70908,2.6035 v 4.868333 h 1.56633 v 0.709083 h -4.16983 v -0.709083 h 1.7145 v -4.15925 h -1.66158 v -0.709083 z"
         style="font-style:normal;font-variant:normal;font-weight:normal;font-stretch:normal;font-family:'Fira Code';-inkscape-font-specification:'Fira Code';stroke-width:0.26458332px"
         id="path5155" />
      <path
         d="m 285.27611,73.947179 q 0.635,0 1.00542,-0.243417 0.37042,-0.243416 0.37042,-0.645583 0,-0.275167 -0.0953,-0.4445 -0.0952,-0.179917 -0.381,-0.3175 -0.28575,-0.148167 -0.86784,-0.296333 -0.97366,-0.243417 -1.43933,-0.582084 -0.46567,-0.34925 -0.46567,-1.026583 0,-0.6985 0.58209,-1.11125 0.58208,-0.41275 1.53458,-0.41275 1.16417,0 2.032,0.613833 l -0.40217,0.613834 q -0.34925,-0.243417 -0.73025,-0.370417 -0.381,-0.137583 -0.87841,-0.137583 -1.2065,0 -1.2065,0.73025 0,0.254 0.127,0.41275 0.13758,0.15875 0.43391,0.28575 0.30692,0.116416 0.91017,0.28575 0.91017,0.243416 1.35466,0.624416 0.45509,0.370417 0.45509,1.090084 0,0.836083 -0.67733,1.248833 -0.67734,0.41275 -1.66159,0.41275 -1.31233,0 -2.18016,-0.751417 l 0.49741,-0.582083 q 0.33867,0.275167 0.77259,0.4445 0.43391,0.15875 0.91016,0.15875 z"
         style="font-style:normal;font-variant:normal;font-weight:normal;font-stretch:normal;font-family:'Fira Code';-inkscape-font-specification:'Fira Code';stroke-width:0.26458332px"
         id="path5157" />
    </g>
  </g>
</svg>
